# xmcd CD database file
#
# Track frame offsets:
#	150
#	18442
#	32466
#	45966
#	60511
#	73588
#	86094
#	105516
#	123082
#	141514
#	157511
#	167886
#
# Disc length: 2458 seconds
#
# Revision: 0
# Processed by: cddbd v1.5.2PL0 Copyright (c) Steve Scherf et al.
# Submitted via: CDex 1.51
#
DISCID=8c09980c
DTITLE=Billy Higginson - Outback Dreams
DYEAR=2009
DGENRE=Country
TTITLE0=I wanna see the rain
TTITLE1=Outback dreams
TTITLE2=Sweet surrender
TTITLE3=Tamworth
TTITLE4=My baby's arms
TTITLE5=2 minds
TTITLE6=Man on the land
TTITLE7=Front seat of my truck
TTITLE8=Where the cockatoos fly
TTITLE9=Cassowary coast
TTITLE10=Road trains and rodeos
TTITLE11=No other name
EXTD=YEAR: 2009
EXTT0=
EXTT1=
EXTT2=
EXTT3=
EXTT4=
EXTT5=
EXTT6=
EXTT7=
EXTT8=
EXTT9=
EXTT10=
EXTT11=
PLAYORDER=
